<?xml version="1.0" standalone="no"?>
<!DOCTYPE svg PUBLIC "-//W3C//DTD SVG 20010904//EN"
 "http://www.w3.org/TR/2001/REC-SVG-20010904/DTD/svg10.dtd">
<svg version="1.0" xmlns="http://www.w3.org/2000/svg"
 width="200.000000pt" height="200.000000pt" viewBox="0 0 200.000000 200.000000"
 preserveAspectRatio="xMidYMid meet">

<g transform="translate(0.000000,200.000000) scale(0.100000,-0.100000)"
fill="#000000" stroke="none">
<path d="M922 1735 l-112 -75 0 -80 0 -79 -55 -33 -54 -33 -1 -67 c0 -54 3
-68 15 -68 12 0 15 13 15 59 l0 60 55 33 54 33 1 81 0 81 100 67 100 66 0 -99
c0 -98 0 -100 30 -124 21 -18 30 -35 30 -56 0 -21 5 -31 15 -31 11 0 15 11 15
38 0 31 -6 43 -30 60 l-30 23 0 109 c0 98 -2 110 -18 110 -9 0 -68 -34 -130
-75z"/>
<path d="M990 1655 c0 -8 5 -15 10 -15 6 0 10 7 10 15 0 8 -4 15 -10 15 -5 0
-10 -7 -10 -15z"/>
<path d="M990 1595 c0 -8 5 -15 10 -15 6 0 10 7 10 15 0 8 -4 15 -10 15 -5 0
-10 -7 -10 -15z"/>
<path d="M990 1540 c0 -5 5 -10 10 -10 6 0 10 5 10 10 0 6 -4 10 -10 10 -5 0
-10 -4 -10 -10z"/>
<path d="M990 1485 c0 -8 5 -15 10 -15 6 0 10 7 10 15 0 8 -4 15 -10 15 -5 0
-10 -7 -10 -15z"/>
<path d="M1040 1485 c0 -8 7 -15 15 -15 8 0 15 7 15 15 0 8 -7 15 -15 15 -8 0
-15 -7 -15 -15z"/>
<path d="M990 1425 c0 -8 5 -15 10 -15 6 0 10 7 10 15 0 8 -4 15 -10 15 -5 0
-10 -7 -10 -15z"/>
<path d="M1040 1425 c0 -8 7 -15 15 -15 8 0 15 7 15 15 0 8 -7 15 -15 15 -8 0
-15 -7 -15 -15z"/>
<path d="M1100 1410 c0 -27 -3 -30 -30 -30 l-30 0 0 -200 0 -200 -155 0 c-166
0 -176 3 -130 46 18 16 25 34 25 58 0 34 -42 162 -59 179 -13 13 -28 -13 -56
-96 -28 -86 -26 -119 11 -144 42 -27 30 -43 -31 -43 -42 0 -55 -3 -55 -15 0
-13 52 -15 410 -15 226 0 410 4 410 9 0 19 -23 71 -31 71 -5 0 -21 14 -36 30
-19 21 -35 30 -58 30 -31 0 -65 -25 -65 -47 0 -6 -7 -13 -15 -17 -8 -3 -15
-15 -15 -26 0 -18 -6 -20 -60 -20 l-60 0 0 185 0 185 100 0 100 0 0 -110 c0
-91 3 -110 15 -110 13 0 15 20 15 124 l0 125 -27 3 c-22 2 -29 9 -31 31 -3 27
-4 27 -73 27 l-69 0 0 -30z m118 -12 c-3 -7 -23 -14 -46 -16 -33 -2 -42 0 -42
12 0 12 11 16 46 16 32 0 44 -4 42 -12z m-464 -294 c4 -19 1 -36 -8 -49 -15
-19 -15 -19 -16 8 0 17 -5 27 -15 27 -10 0 -15 -10 -15 -26 0 -23 -2 -25 -16
-13 -19 15 -14 63 12 125 l17 39 17 -41 c10 -22 21 -54 24 -70z m560 -50 c9
-8 16 -22 16 -30 0 -8 9 -14 20 -14 11 0 20 -7 20 -15 0 -12 -15 -15 -75 -15
-60 0 -75 3 -75 15 0 8 3 15 8 15 4 0 15 14 24 30 19 33 39 38 62 14z"/>
<path d="M990 1365 c0 -8 5 -15 10 -15 6 0 10 7 10 15 0 8 -4 15 -10 15 -5 0
-10 -7 -10 -15z"/>
<path d="M990 1310 c0 -5 5 -10 10 -10 6 0 10 5 10 10 0 6 -4 10 -10 10 -5 0
-10 -4 -10 -10z"/>
<path d="M1100 1310 c0 -6 30 -10 70 -10 40 0 70 4 70 10 0 6 -30 10 -70 10
-40 0 -70 -4 -70 -10z"/>
<path d="M990 1255 c0 -8 5 -15 10 -15 6 0 10 7 10 15 0 8 -4 15 -10 15 -5 0
-10 -7 -10 -15z"/>
<path d="M1100 1255 c0 -12 14 -15 70 -15 56 0 70 3 70 15 0 12 -14 15 -70 15
-56 0 -70 -3 -70 -15z"/>
<path d="M990 1195 c0 -8 5 -15 10 -15 6 0 10 7 10 15 0 8 -4 15 -10 15 -5 0
-10 -7 -10 -15z"/>
<path d="M1100 1195 c0 -12 14 -15 70 -15 56 0 70 3 70 15 0 12 -14 15 -70 15
-56 0 -70 -3 -70 -15z"/>
<path d="M990 1140 c0 -5 5 -10 10 -10 6 0 10 5 10 10 0 6 -4 10 -10 10 -5 0
-10 -4 -10 -10z"/>
<path d="M1100 1140 c0 -6 30 -10 70 -10 40 0 70 4 70 10 0 6 -30 10 -70 10
-40 0 -70 -4 -70 -10z"/>
<path d="M990 1080 c0 -5 5 -10 10 -10 6 0 10 5 10 10 0 6 -4 10 -10 10 -5 0
-10 -4 -10 -10z"/>
<path d="M1100 1080 c0 -5 23 -10 50 -10 28 0 50 5 50 10 0 6 -22 10 -50 10
-27 0 -50 -4 -50 -10z"/>
<path d="M990 1025 c0 -8 5 -15 10 -15 6 0 10 7 10 15 0 8 -4 15 -10 15 -5 0
-10 -7 -10 -15z"/>
<path d="M1100 1026 c0 -11 10 -16 31 -16 38 0 35 24 -4 28 -19 2 -27 -1 -27
-12z"/>
<path d="M565 848 c-3 -8 -4 -75 -3 -149 l3 -134 50 2 c75 4 85 22 85 143 0
117 -10 135 -82 146 -37 5 -49 3 -53 -8z m87 -42 c4 -6 8 -50 8 -98 0 -66 -4
-90 -16 -102 -8 -9 -20 -16 -25 -16 -5 0 -9 53 -9 120 0 109 1 119 18 113 9
-4 20 -11 24 -17z"/>
<path d="M756 778 c-11 -16 -16 -46 -16 -100 0 -65 3 -81 20 -98 11 -11 28
-20 38 -20 27 0 62 29 62 51 0 25 -22 24 -38 -2 -11 -16 -16 -18 -28 -9 -8 7
-14 25 -14 41 0 27 3 29 40 29 l40 0 0 49 c0 32 -6 55 -16 65 -23 24 -70 20
-88 -6z m64 -34 c12 -31 6 -44 -21 -44 -14 0 -19 7 -19 28 0 48 24 58 40 16z"/>
<path d="M900 680 c0 -113 1 -120 20 -120 18 0 20 8 22 102 2 70 7 103 16 106
7 2 12 -5 12 -18 0 -15 5 -20 18 -18 23 4 23 47 0 62 -13 8 -23 8 -38 -2 -12
-7 -20 -8 -20 -2 0 5 -7 10 -15 10 -12 0 -15 -20 -15 -120z"/>
<path d="M1064 792 c-47 -31 -47 -193 0 -224 19 -13 54 -9 70 8 20 20 21 54 1
54 -8 0 -15 -6 -15 -14 0 -8 -5 -18 -10 -21 -18 -11 -40 15 -40 46 0 27 3 29
39 29 34 0 39 3 44 29 6 31 0 69 -16 89 -10 13 -55 16 -73 4z m50 -38 c13 -35
7 -54 -19 -54 -18 0 -25 5 -25 19 0 29 11 51 25 51 7 0 16 -7 19 -16z"/>
<path d="M1180 785 c0 -10 10 -15 30 -15 17 0 30 -2 30 -5 0 -2 -13 -41 -30
-87 -42 -116 -42 -120 23 -116 38 2 52 7 52 18 0 9 -12 17 -31 20 l-31 5 33
85 c18 47 33 91 33 98 1 8 -16 12 -54 12 -42 0 -55 -3 -55 -15z"/>
<path d="M1322 788 c-17 -17 -15 -58 2 -58 7 0 16 9 19 21 8 30 41 21 45 -12
2 -21 -4 -31 -33 -47 -45 -27 -62 -63 -47 -97 15 -32 39 -42 65 -26 16 10 21
10 28 0 6 -10 11 -11 20 -2 17 17 8 211 -11 223 -21 14 -74 12 -88 -2z m68
-152 c0 -38 -21 -53 -41 -30 -9 11 -9 21 -1 39 17 38 42 32 42 -9z"/>
<path d="M640 335 c0 -138 1 -145 20 -145 18 0 20 7 20 70 0 68 1 70 25 70 24
0 25 -2 25 -70 0 -68 1 -70 25 -70 l25 0 0 145 0 145 -25 0 c-24 0 -25 -3 -25
-60 0 -57 -1 -60 -25 -60 -24 0 -25 3 -25 60 0 53 -2 60 -20 60 -19 0 -20 -7
-20 -145z"/>
<path d="M854 422 c-23 -15 -34 -53 -34 -114 0 -97 25 -129 85 -114 18 5 27
17 36 49 15 56 7 141 -16 167 -18 20 -51 26 -71 12z m46 -41 c27 -51 -1 -194
-30 -151 -11 16 -14 129 -4 154 8 21 21 20 34 -3z"/>
<path d="M990 310 c0 -113 1 -120 20 -120 18 0 20 8 22 103 2 83 6 102 18 102
12 0 16 -19 18 -102 3 -102 3 -103 27 -103 24 0 24 1 27 103 2 83 6 102 18
102 12 0 16 -19 18 -102 2 -95 4 -103 22 -103 19 0 20 7 20 109 0 126 -9 143
-62 123 -23 -8 -35 -8 -49 1 -15 9 -24 9 -41 -2 -16 -10 -23 -10 -26 -2 -2 6
-10 11 -18 11 -11 0 -14 -23 -14 -120z"/>
<path d="M1271 413 c-38 -31 -41 -171 -5 -208 34 -33 104 -5 104 42 0 21 -37
15 -43 -7 -7 -28 -26 -25 -37 6 -17 45 -13 53 33 56 l42 3 -1 49 c-1 70 -45
98 -93 59z m57 -51 c3 -28 0 -32 -22 -32 -29 0 -31 6 -16 45 13 35 34 27 38
-13z"/>
</g>
</svg>
